<svg width="76" height="82" viewBox="0 0 76 82" fill="none" xmlns="http://www.w3.org/2000/svg">
<path fill-rule="evenodd" clip-rule="evenodd" d="M0 39.3956L24.451 17.2788L44.1899 26.6093L58.9624 22.6928L75.5178 37.783L74.881 39.7411L58.3256 25.1119L44.954 38.1285L24.0688 20.3889L3.11983 39.338L0 39.3956Z" fill="#18B8A5"/>
<path fill-rule="evenodd" clip-rule="evenodd" d="M4.96649 39.5109L23.6869 22.5775L31.5825 29.7196L24.5785 25.6879L4.96649 39.5109Z" fill="#4D4D4D"/>
<path fill-rule="evenodd" clip-rule="evenodd" d="M51.0032 34.9607L58.708 27.9917L70.6787 38.8197L58.708 30.2956L51.0032 34.9607Z" fill="#4D4D4D"/>
<path fill-rule="evenodd" clip-rule="evenodd" d="M33.7473 18.7762L44.19 23.384L48.7746 22.1168L48.6472 0L33.238 0.345497L33.7473 18.7762Z" fill="#4D4D4D"/>
<path fill-rule="evenodd" clip-rule="evenodd" d="M3.05603 52.7579C9.33872 46.4607 12.4799 43.3122 12.4799 43.3122C17.092 49.0451 23.7946 50.7878 28.5767 48.6605C36.7213 46.8028 32.8099 32.7369 33.4926 32.8297C39.5335 37.4477 43.51 40.673 44.6006 42.5057C47.48 39.2804 48.555 37.9365 48.6471 38.4739C50.6028 57.3383 32.5205 65.6457 14.0083 60.015C9.1469 57.8094 5.49632 55.3903 3.05627 52.7579H3.05603Z" fill="#4D4D4D"/>
<path d="M22.2859 31.4475H19.3569V34.3274H22.2859V31.4475Z" fill="#4D4D4D"/>
<path d="M26.4248 31.4475H23.4958V34.3274H26.4248V31.4475Z" fill="#4D4D4D"/>
<path d="M22.2859 35.767H19.3569V38.6468H22.2859V35.767Z" fill="#4D4D4D"/>
<path d="M26.4248 35.767H23.4958V38.6468H26.4248V35.767Z" fill="#4D4D4D"/>
<path d="M12.2616 75.1134C11.8115 75.1134 11.3963 75.031 11.016 74.8662C10.642 74.695 10.3345 74.4541 10.0937 74.1435L10.9494 73.1166C11.1333 73.3575 11.3266 73.5413 11.5294 73.6681C11.7323 73.7885 11.951 73.8488 12.1855 73.8488C12.8131 73.8488 13.1269 73.4811 13.1269 72.7458V69.5794H10.7878V68.3433H14.6577V72.6602C14.6577 73.4843 14.4549 74.0992 14.0492 74.5049C13.6435 74.9106 13.0476 75.1134 12.2616 75.1134ZM17.596 71.0247H20.8004V72.2228H17.596V71.0247ZM17.7101 73.7632H21.3329V74.9993H16.1793V68.3433H21.2093V69.5794H17.7101V73.7632ZM22.5585 74.9993V68.3433H23.8327L26.6662 73.0405H25.9911L28.7771 68.3433H30.0417L30.0607 74.9993H28.6154L28.6059 70.5588H28.8722L26.6472 74.2957H25.9531L23.6805 70.5588H24.0038V74.9993H22.5585ZM31.6399 74.9993V68.3433H32.914L36.8411 73.1356H36.223V68.3433H37.7444V74.9993H36.4797L32.5432 70.207H33.1613V74.9993H31.6399ZM38.4444 74.9993L41.411 68.3433H42.9324L45.9086 74.9993H44.2921L41.8579 69.123H42.4665L40.0228 74.9993H38.4444ZM39.9277 73.573L40.3366 72.4035H43.7596L44.178 73.573H39.9277ZM49.6916 75.1134C49.1782 75.1134 48.6996 75.031 48.2558 74.8662C47.8184 74.695 47.4381 74.4541 47.1148 74.1435C46.7915 73.8329 46.538 73.4684 46.3541 73.05C46.1766 72.6317 46.0879 72.1721 46.0879 71.6713C46.0879 71.1705 46.1766 70.711 46.3541 70.2926C46.538 69.8742 46.7915 69.5097 47.1148 69.1991C47.4444 68.8885 47.8279 68.6508 48.2653 68.486C48.7027 68.3148 49.1813 68.2292 49.7011 68.2292C50.278 68.2292 50.7978 68.3307 51.2605 68.5335C51.7296 68.73 52.1226 69.0216 52.4396 69.4083L51.4507 70.3211C51.2225 70.0612 50.9689 69.8679 50.69 69.7411C50.4111 69.608 50.1068 69.5414 49.7772 69.5414C49.4666 69.5414 49.1813 69.5921 48.9214 69.6935C48.6615 69.795 48.4365 69.9408 48.2463 70.1309C48.0562 70.3211 47.9072 70.5461 47.7994 70.806C47.698 71.0659 47.6473 71.3544 47.6473 71.6713C47.6473 71.9883 47.698 72.2767 47.7994 72.5366C47.9072 72.7965 48.0562 73.0215 48.2463 73.2117C48.4365 73.4019 48.6615 73.5477 48.9214 73.6491C49.1813 73.7505 49.4666 73.8012 49.7772 73.8012C50.1068 73.8012 50.4111 73.7378 50.69 73.6111C50.9689 73.4779 51.2225 73.2783 51.4507 73.012L52.4396 73.9248C52.1226 74.3115 51.7296 74.6063 51.2605 74.8091C50.7978 75.012 50.2748 75.1134 49.6916 75.1134ZM55.0786 74.9993V72.2799L55.4304 73.2117L52.5018 68.3433H54.1372L56.3812 72.0802H55.4399L57.6934 68.3433H59.2053L56.2766 73.2117L56.619 72.2799V74.9993H55.0786ZM58.5664 74.9993L61.5331 68.3433H63.0544L66.0306 74.9993H64.4142L61.98 69.123H62.5885L60.1448 74.9993H58.5664ZM60.0497 73.573L60.4586 72.4035H63.8817L64.3001 73.573H60.0497Z" fill="#18B8A5"/>
<path d="M18.3644 81.7303C18.1187 81.7303 17.8825 81.691 17.6557 81.6122C17.4321 81.5303 17.2589 81.4264 17.136 81.3004L17.2731 81.0311C17.3896 81.1445 17.5455 81.2406 17.7408 81.3193C17.9392 81.3949 18.1471 81.4327 18.3644 81.4327C18.5722 81.4327 18.7407 81.4075 18.8699 81.3571C19.0022 81.3036 19.0982 81.2327 19.1581 81.1445C19.2211 81.0563 19.2525 80.9587 19.2525 80.8516C19.2525 80.7225 19.2148 80.6185 19.1392 80.5398C19.0667 80.4611 18.9707 80.3997 18.851 80.3556C18.7313 80.3083 18.599 80.2674 18.4541 80.2327C18.3093 80.1981 18.1644 80.1619 18.0195 80.1241C17.8746 80.0831 17.7408 80.0296 17.6179 79.9634C17.4982 79.8973 17.4006 79.8107 17.325 79.7036C17.2526 79.5934 17.2164 79.4501 17.2164 79.2737C17.2164 79.1099 17.2589 78.9603 17.3439 78.8249C17.4321 78.6863 17.566 78.5761 17.7455 78.4942C17.925 78.4091 18.1549 78.3666 18.4352 78.3666C18.6211 78.3666 18.8053 78.3934 18.988 78.4469C19.1707 78.4973 19.3281 78.5682 19.4604 78.6595L19.3423 78.9383C19.2006 78.8438 19.0494 78.7745 18.8888 78.7304C18.7313 78.6863 18.5785 78.6642 18.4305 78.6642C18.2321 78.6642 18.0683 78.691 17.9392 78.7446C17.8101 78.7981 17.714 78.8705 17.651 78.9619C17.5912 79.0501 17.5612 79.1509 17.5612 79.2642C17.5612 79.3934 17.5975 79.4973 17.6699 79.576C17.7455 79.6548 17.8431 79.7162 17.9628 79.7603C18.0856 79.8044 18.2195 79.8438 18.3644 79.8784C18.5093 79.913 18.6526 79.9508 18.7943 79.9918C18.9392 80.0327 19.0714 80.0863 19.1911 80.1524C19.314 80.2154 19.4116 80.3004 19.484 80.4075C19.5596 80.5146 19.5974 80.6548 19.5974 80.828C19.5974 80.9886 19.5533 81.1382 19.4651 81.2768C19.377 81.4122 19.2415 81.5225 19.0589 81.6075C18.8793 81.6894 18.6478 81.7303 18.3644 81.7303ZM20.671 79.8737H22.419V80.1713H20.671V79.8737ZM20.7088 81.3996H22.6977V81.702H20.3592V78.395H22.6268V78.6973H20.7088V81.3996ZM23.5195 81.702V78.395H24.7572C25.0376 78.395 25.2785 78.4406 25.4801 78.532C25.6816 78.6202 25.836 78.7493 25.9431 78.9194C26.0533 79.0863 26.1084 79.2894 26.1084 79.5288C26.1084 79.7619 26.0533 79.9634 25.9431 80.1335C25.836 80.3004 25.6816 80.4296 25.4801 80.5209C25.2785 80.6091 25.0376 80.6532 24.7572 80.6532H23.7132L23.8691 80.4926V81.702H23.5195ZM25.7777 81.702L24.9273 80.502H25.3053L26.1604 81.702H25.7777ZM23.8691 80.5209L23.7132 80.3556H24.7478C25.0785 80.3556 25.3289 80.2831 25.499 80.1382C25.6722 79.9934 25.7588 79.7902 25.7588 79.5288C25.7588 79.2642 25.6722 79.0595 25.499 78.9146C25.3289 78.7698 25.0785 78.6973 24.7478 78.6973H23.7132L23.8691 78.532V80.5209ZM27.8737 81.702L26.4091 78.395H26.7871L28.1571 81.5083H27.9493L29.3288 78.395H29.6831L28.2186 81.702H27.8737ZM30.1631 81.702V78.395H30.5127V81.702H30.1631ZM33.0249 81.7303C32.7761 81.7303 32.5461 81.6894 32.3351 81.6075C32.1241 81.5225 31.9414 81.4044 31.7871 81.2532C31.6328 81.102 31.5115 80.9241 31.4233 80.7193C31.3383 80.5146 31.2958 80.291 31.2958 80.0485C31.2958 79.806 31.3383 79.5823 31.4233 79.3776C31.5115 79.1729 31.6328 78.995 31.7871 78.8438C31.9446 78.6926 32.1288 78.5761 32.3398 78.4942C32.5509 78.4091 32.7808 78.3666 33.0296 78.3666C33.269 78.3666 33.4942 78.4076 33.7052 78.4894C33.9162 78.5682 34.0942 78.6879 34.239 78.8485L34.017 79.0705C33.8816 78.932 33.732 78.8327 33.5682 78.7729C33.4044 78.7099 33.228 78.6784 33.0391 78.6784C32.8406 78.6784 32.6564 78.7131 32.4863 78.7824C32.3162 78.8485 32.1682 78.9446 32.0422 79.0705C31.9162 79.1934 31.817 79.3383 31.7446 79.5052C31.6753 79.669 31.6406 79.8501 31.6406 80.0485C31.6406 80.2469 31.6753 80.4296 31.7446 80.5965C31.817 80.7603 31.9162 80.9052 32.0422 81.0311C32.1682 81.154 32.3162 81.25 32.4863 81.3193C32.6564 81.3855 32.8406 81.4185 33.0391 81.4185C33.228 81.4185 33.4044 81.387 33.5682 81.324C33.732 81.2611 33.8816 81.1603 34.017 81.0217L34.239 81.2437C34.0942 81.4044 33.9162 81.5256 33.7052 81.6075C33.4942 81.6894 33.2674 81.7303 33.0249 81.7303ZM35.2961 79.8737H37.0441V80.1713H35.2961V79.8737ZM35.3339 81.3996H37.3228V81.702H34.9843V78.395H37.252V78.6973H35.3339V81.3996ZM39.0564 81.7303C38.8108 81.7303 38.5745 81.691 38.3478 81.6122C38.1241 81.5303 37.9509 81.4264 37.8281 81.3004L37.9651 81.0311C38.0816 81.1445 38.2375 81.2406 38.4328 81.3193C38.6312 81.3949 38.8391 81.4327 39.0564 81.4327C39.2643 81.4327 39.4328 81.4075 39.5619 81.3571C39.6942 81.3036 39.7903 81.2327 39.8501 81.1445C39.9131 81.0563 39.9446 80.9587 39.9446 80.8516C39.9446 80.7225 39.9068 80.6185 39.8312 80.5398C39.7588 80.4611 39.6627 80.3997 39.543 80.3556C39.4233 80.3083 39.2911 80.2674 39.1462 80.2327C39.0013 80.1981 38.8564 80.1619 38.7115 80.1241C38.5667 80.0831 38.4328 80.0296 38.31 79.9634C38.1903 79.8973 38.0927 79.8107 38.0171 79.7036C37.9446 79.5934 37.9084 79.4501 37.9084 79.2737C37.9084 79.1099 37.9509 78.9603 38.036 78.8249C38.1241 78.6863 38.258 78.5761 38.4375 78.4942C38.6171 78.4091 38.847 78.3666 39.1273 78.3666C39.3131 78.3666 39.4974 78.3934 39.68 78.4469C39.8627 78.4973 40.0202 78.5682 40.1525 78.6595L40.0344 78.9383C39.8926 78.8438 39.7414 78.7745 39.5808 78.7304C39.4233 78.6863 39.2706 78.6642 39.1226 78.6642C38.9241 78.6642 38.7604 78.691 38.6312 78.7446C38.5021 78.7981 38.406 78.8705 38.343 78.9619C38.2832 79.0501 38.2533 79.1509 38.2533 79.2642C38.2533 79.3934 38.2895 79.4973 38.3619 79.576C38.4375 79.6548 38.5352 79.7162 38.6548 79.7603C38.7777 79.8044 38.9115 79.8438 39.0564 79.8784C39.2013 79.913 39.3446 79.9508 39.4863 79.9918C39.6312 80.0327 39.7635 80.0863 39.8832 80.1524C40.006 80.2154 40.1036 80.3004 40.1761 80.4075C40.2517 80.5146 40.2895 80.6548 40.2895 80.828C40.2895 80.9886 40.2454 81.1382 40.1572 81.2768C40.069 81.4122 39.9336 81.5225 39.7509 81.6075C39.5714 81.6894 39.3399 81.7303 39.0564 81.7303ZM42.2876 81.702V78.395H42.6372V81.3996H44.4892V81.702H42.2876ZM45.403 81.702V78.6973H44.2409V78.395H46.9148V78.6973H45.7526V81.702H45.403ZM47.4733 81.702V78.395H48.8198C49.1725 78.395 49.4812 78.4658 49.7457 78.6076C50.0135 78.7461 50.2213 78.9398 50.3694 79.1886C50.5174 79.4375 50.5914 79.7241 50.5914 80.0485C50.5914 80.3729 50.5174 80.6595 50.3694 80.9083C50.2213 81.1571 50.0135 81.3524 49.7457 81.4941C49.4812 81.6327 49.1725 81.702 48.8198 81.702H47.4733ZM47.8229 81.3996H48.8009C49.0938 81.3996 49.3473 81.3429 49.5615 81.2296C49.7788 81.113 49.9473 80.954 50.067 80.7524C50.1867 80.5477 50.2465 80.313 50.2465 80.0485C50.2465 79.7808 50.1867 79.5461 50.067 79.3446C49.9473 79.143 49.7788 78.9855 49.5615 78.8721C49.3473 78.7556 49.0938 78.6973 48.8009 78.6973H47.8229V81.3996Z" fill="#333333"/>
<path fill-rule="evenodd" clip-rule="evenodd" d="M43.7001 26.6093L44.9541 38.1285L59.4377 22.6928L43.7001 26.6093Z" fill="#149586"/>
<path fill-rule="evenodd" clip-rule="evenodd" d="M24.451 17.2788L3.11983 39.338L0 39.3956L24.451 17.2788Z" fill="#149586"/>
<path fill-rule="evenodd" clip-rule="evenodd" d="M59.1159 39.2315C58.8469 39.3497 58.5313 39.3497 58.1686 39.2315C58.0549 38.7696 57.7506 38.4822 57.6361 38.1248C57.4272 37.4723 57.9592 36.9385 58.6782 36.9461C59.3503 36.9533 59.8841 37.5138 59.6329 38.1354C59.5017 38.4602 59.2058 38.7679 59.1161 39.2315H59.1159Z" fill="#4D4D4D"/>
<path d="M59.0199 39.3713H58.2512C58.1964 39.3713 58.1519 39.4115 58.1519 39.4611C58.1519 39.5107 58.1964 39.5509 58.2512 39.5509H59.0199C59.0747 39.5509 59.1192 39.5107 59.1192 39.4611C59.1192 39.4115 59.0747 39.3713 59.0199 39.3713Z" fill="#4D4D4D"/>
<path d="M58.9817 39.6183H58.2894C58.2401 39.6183 58.2 39.6585 58.2 39.7081C58.2 39.7577 58.2401 39.7979 58.2894 39.7979H58.9817C59.0311 39.7979 59.0711 39.7577 59.0711 39.7081C59.0711 39.6585 59.0311 39.6183 58.9817 39.6183Z" fill="#4D4D4D"/>
<path fill-rule="evenodd" clip-rule="evenodd" d="M58.3525 39.8668H58.941C58.8429 40.101 58.4158 40.0781 58.3525 39.8668Z" fill="#4D4D4D"/>
<path d="M58.7219 36.0675C58.7219 36.033 58.6847 36.0051 58.6388 36.0051C58.5928 36.0051 58.5556 36.033 58.5556 36.0675V36.4982C58.5556 36.5326 58.5928 36.5606 58.6388 36.5606C58.6847 36.5606 58.7219 36.5326 58.7219 36.4982V36.0675Z" fill="#4D4D4D"/>
<path d="M60.0514 36.5241L60.0514 36.524C60.0187 36.4949 59.9705 36.4911 59.9438 36.5156L59.6094 36.8225C59.5827 36.847 59.5876 36.8905 59.6203 36.9196L59.6203 36.9197C59.6531 36.9488 59.7012 36.9526 59.7279 36.9281L60.0623 36.6212C60.089 36.5967 60.0842 36.5532 60.0514 36.5241Z" fill="#4D4D4D"/>
<path d="M60.6548 37.7908L60.6548 37.7908C60.6542 37.7492 60.6228 37.716 60.5848 37.7165L60.1084 37.7227C60.0704 37.7232 60.0401 37.7572 60.0408 37.7988L60.0408 37.7988C60.0414 37.8404 60.0728 37.8736 60.1108 37.8732L60.5872 37.8669C60.6252 37.8664 60.6555 37.8324 60.6548 37.7908Z" fill="#4D4D4D"/>
<path d="M60.1013 39.076L60.1013 39.076C60.1331 39.046 60.1366 39.0024 60.1091 38.9786L59.7651 38.6805C59.7376 38.6567 59.6896 38.6618 59.6578 38.6918L59.6578 38.6918C59.626 38.7218 59.6225 38.7654 59.65 38.7892L59.9941 39.0873C60.0215 39.1111 60.0696 39.106 60.1013 39.076Z" fill="#4D4D4D"/>
<path d="M57.2812 39.1578L57.2812 39.1578C57.3148 39.1861 57.3631 39.1887 57.389 39.1635L57.7135 38.848C57.7394 38.8228 57.7332 38.7795 57.6995 38.7512L57.6995 38.7511C57.6659 38.7228 57.6176 38.7203 57.5917 38.7455L57.2672 39.061C57.2413 39.0861 57.2476 39.1295 57.2812 39.1578Z" fill="#4D4D4D"/>
<path d="M56.6378 37.9074L56.6378 37.9074C56.6398 37.9489 56.6722 37.9814 56.7102 37.9799L57.1861 37.9613C57.2241 37.9598 57.2533 37.9249 57.2514 37.8834L57.2514 37.8834C57.2494 37.8419 57.217 37.8094 57.179 37.8109L56.703 37.8295C56.665 37.831 56.6358 37.8659 56.6378 37.9074Z" fill="#4D4D4D"/>
<path d="M57.1502 36.6082L57.1501 36.6083C57.1193 36.6391 57.1172 36.6828 57.1454 36.7058L57.4988 36.9948C57.5271 37.0179 57.5749 37.0116 57.6057 36.9808L57.6057 36.9807C57.6365 36.9499 57.6386 36.9062 57.6104 36.8832L57.257 36.5942C57.2288 36.5711 57.181 36.5774 57.1502 36.6082Z" fill="#4D4D4D"/>
<path fill-rule="evenodd" clip-rule="evenodd" d="M53.7093 35.0438H63.6378C64.0215 35.0438 64.3354 35.3278 64.3354 35.6748V40.7996C64.3354 41.1466 64.0215 41.4305 63.6378 41.4305H53.7093C53.3257 41.4305 53.0118 41.1466 53.0118 40.7996V35.6748C53.0118 35.3278 53.3257 35.0438 53.7093 35.0438ZM53.5901 35.5406H63.7861V40.705H53.5901V35.5406Z" fill="#4D4D4D"/>
<path fill-rule="evenodd" clip-rule="evenodd" d="M53.6183 41.7404H63.7273C63.8588 41.7404 63.8845 41.8632 63.9662 41.9565L65.1486 43.3056C65.3196 43.5009 64.9234 43.7583 64.6482 43.7583H52.6467C52.3715 43.7583 51.9708 43.4974 52.1463 43.3056L53.3796 41.9565C53.4633 41.865 53.4871 41.7404 53.6186 41.7404H53.6183ZM57.5129 42.7495H59.9092C59.9404 42.7495 59.9464 42.7951 59.9659 42.8297L60.2462 43.3313C60.2868 43.4037 60.1928 43.4996 60.1274 43.4996H57.2826C57.2172 43.4996 57.1223 43.4026 57.1639 43.3313L57.4564 42.8297C57.4763 42.7958 57.4819 42.7495 57.5129 42.7495Z" fill="#4D4D4D"/>
<path d="M64.7688 44.0345H52.6363C52.5676 44.0345 52.5118 44.0849 52.5118 44.1471V44.1473C52.5118 44.2095 52.5676 44.2599 52.6363 44.2599H64.7688C64.8376 44.2599 64.8933 44.2095 64.8933 44.1473V44.1471C64.8933 44.0849 64.8376 44.0345 64.7688 44.0345Z" fill="#4D4D4D"/>
</svg>
