<svg width="30" height="16" viewBox="0 0 30 16" fill="none" xmlns="http://www.w3.org/2000/svg">
<path d="M28.8498 6.97406C28.8495 6.97368 28.8492 6.97324 28.8488 6.97285L23.0048 0.369768C22.5669 -0.124892 21.8588 -0.12305 21.423 0.374086C20.9873 0.871158 20.9889 1.67515 21.4267 2.16987L25.3505 6.60308H1.66422C1.0465 6.60308 0.545776 7.17158 0.545776 7.87291C0.545776 8.57423 1.0465 9.14273 1.66422 9.14273H25.3504L21.4268 13.5759C20.989 14.0707 20.9873 14.8747 21.4231 15.3717C21.8589 15.8689 22.5671 15.8706 23.0048 15.376L28.8489 8.77296C28.8492 8.77258 28.8495 8.77213 28.8499 8.77175C29.2879 8.27538 29.2865 7.46878 28.8498 6.97406Z" fill="white"/>
</svg>
