<svg width="42" height="42" viewBox="0 0 42 42" fill="none" xmlns="http://www.w3.org/2000/svg">
<path d="M40.5114 11.743L38.1511 14.8006L37.6577 18.6327L33.826 19.1257L30.7684 21.4861L27.7108 19.1257L23.8791 18.6327L23.3857 14.8006L21.0254 11.743L23.3857 8.68585L23.8791 4.85373L27.7108 4.36077L30.7684 2L33.826 4.36077L37.6577 4.85373L38.1511 8.68585L40.5114 11.743Z" stroke="#40DDB6" stroke-width="2" stroke-miterlimit="10"/>
<path d="M36.0685 18.3202V29.8354L30.7684 26.284L25.4683 29.8354V18.3202" stroke="#40DDB6" stroke-width="2" stroke-miterlimit="10"/>
<path d="M22.8883 21.5668C21.2866 23.8273 18.651 25.2877 15.6961 25.2877C11.0978 25.2877 7.27323 21.751 6.91354 17.1669L5.87916 3.96814H21.79" stroke="#40DDB6" stroke-width="2" stroke-miterlimit="10"/>
<path d="M6.67245 17.1896H4.46458C3.38466 17.1896 2.4752 16.3817 2.3482 15.3093L1.01512 8.99438C0.864729 7.72689 1.85524 6.6123 3.1315 6.6123H6.07714" stroke="#40DDB6" stroke-width="2" stroke-miterlimit="10"/>
<path d="M17.8668 24.854C17.8668 24.854 18.3297 30.2089 21.1061 32.5884" stroke="#40DDB6" stroke-width="2" stroke-miterlimit="10"/>
<path d="M13.6792 24.854C13.6792 24.854 13.2163 30.2089 10.4399 32.5884" stroke="#40DDB6" stroke-width="2" stroke-miterlimit="10"/>
<path d="M23.9703 36.8744H7.57568V34.4614C7.57568 33.2743 8.46343 32.3123 9.5588 32.3123H21.9868C23.0821 32.3123 23.9699 33.2743 23.9699 34.4614V36.8744H23.9703Z" stroke="#40DDB6" stroke-width="2" stroke-miterlimit="10"/>
<path d="M25.8436 40.1698H5.70245V39.0235C5.70245 37.8364 6.5902 36.8744 7.68557 36.8744H23.8604C24.9558 36.8744 25.8436 37.8364 25.8436 39.0235V40.1698V40.1698Z" stroke="#40DDB6" stroke-width="2" stroke-miterlimit="10"/>
<path d="M5.70246 40.1697H25.8436V39.0234C25.8436 37.8363 24.9558 36.8743 23.8605 36.8743H7.68558C6.59021 36.8743 5.70246 37.8363 5.70246 39.0234V40.1697V40.1697Z" stroke="#40DDB6" stroke-width="2" stroke-miterlimit="10"/>
<path d="M26.637 13.8181L29.149 15.6692L35.1647 8.00073" stroke="#40DDB6" stroke-width="2" stroke-miterlimit="10"/>
</svg>
