<svg width="42" height="41" viewBox="0 0 42 41" fill="none" xmlns="http://www.w3.org/2000/svg">
<path d="M27.4111 39.8797H12.3427C9.59904 39.8797 7.3752 37.6554 7.3752 34.9122V10.3888" stroke="#40DDB6" stroke-width="2" stroke-miterlimit="10"/>
<path d="M4.02667 1H29.4977C32.1681 1 34.3329 3.16482 34.3329 5.83527V16.7142" stroke="#40DDB6" stroke-width="2" stroke-miterlimit="10"/>
<path d="M7.35844 9.54419H1V4.17943C1 2.42354 2.42354 1 4.17943 1C5.93531 1 7.35885 2.42354 7.35885 4.17943V9.54419H7.35844Z" stroke="#40DDB6" stroke-width="2" stroke-miterlimit="10"/>
<path d="M40.117 25.6534L38.6884 27.7935L38.1849 30.3175L35.6614 30.8206L33.5212 32.2491L31.3811 30.8206L28.8571 30.3175L28.354 27.7935L26.925 25.6534L28.354 23.5133L28.8571 20.9893L31.3811 20.4862L33.5212 19.0576L35.6614 20.4862L38.1849 20.9893L38.6884 23.5133L40.117 25.6534Z" stroke="#40DDB6" stroke-width="2" stroke-miterlimit="10"/>
<path d="M37.1639 30.1741V38.9501L33.5211 36.5095L29.8779 38.9501V30.1741" stroke="#40DDB6" stroke-width="2" stroke-miterlimit="10"/>
<path d="M13.9986 8.33533H25.9872" stroke="#40DDB6" stroke-width="2" stroke-miterlimit="10"/>
<path d="M13.9986 14.4954H25.9872" stroke="#40DDB6" stroke-width="2" stroke-miterlimit="10"/>
<path d="M13.9986 20.5889H25.9872" stroke="#40DDB6" stroke-width="2" stroke-miterlimit="10"/>
<path d="M13.9986 26.5499H21.9467" stroke="#40DDB6" stroke-width="2" stroke-miterlimit="10"/>
<path d="M13.9986 32.6434H21.9467" stroke="#40DDB6" stroke-width="2" stroke-miterlimit="10"/>
</svg>
