<svg width="15" height="14" viewBox="0 0 15 14" fill="none" xmlns="http://www.w3.org/2000/svg">
<path d="M7.51647 3.65024C9.4102 3.65024 10.9733 5.21331 10.9733 7.10705C10.9733 9.03084 9.4102 10.5639 7.51647 10.5639C5.59268 10.5639 4.05966 9.03084 4.05966 7.10705C4.05966 5.21331 5.59268 3.65024 7.51647 3.65024ZM7.51647 9.36149C8.7489 9.36149 9.74085 8.36953 9.74085 7.10705C9.74085 5.87462 8.7489 4.88266 7.51647 4.88266C6.25398 4.88266 5.26203 5.87462 5.26203 7.10705C5.26203 8.36953 6.28404 9.36149 7.51647 9.36149ZM11.9051 3.53C11.9051 3.98089 11.5444 4.3416 11.0935 4.3416C10.6426 4.3416 10.2819 3.98089 10.2819 3.53C10.2819 3.07911 10.6426 2.7184 11.0935 2.7184C11.5444 2.7184 11.9051 3.07911 11.9051 3.53ZM14.1896 4.3416C14.2497 5.45379 14.2497 8.79036 14.1896 9.90255C14.1295 10.9847 13.889 11.9165 13.1075 12.7281C12.3259 13.5097 11.3641 13.7501 10.2819 13.8103C9.16973 13.8704 5.83315 13.8704 4.72096 13.8103C3.63883 13.7501 2.70699 13.5097 1.89539 12.7281C1.11385 11.9165 0.873381 10.9847 0.813262 9.90255C0.753144 8.79036 0.753144 5.45379 0.813262 4.3416C0.873381 3.25947 1.11385 2.29757 1.89539 1.51603C2.70699 0.73449 3.63883 0.494016 4.72096 0.433898C5.83315 0.373779 9.16973 0.373779 10.2819 0.433898C11.3641 0.494016 12.3259 0.73449 13.1075 1.51603C13.889 2.29757 14.1295 3.25947 14.1896 4.3416ZM12.7468 11.0749C13.1075 10.2031 13.0173 8.099 13.0173 7.10705C13.0173 6.14515 13.1075 4.04101 12.7468 3.13923C12.5063 2.5681 12.0554 2.08716 11.4843 1.87674C10.5825 1.51603 8.47837 1.60621 7.51647 1.60621C6.52452 1.60621 4.42037 1.51603 3.54865 1.87674C2.94747 2.11721 2.49658 2.5681 2.25611 3.13923C1.89539 4.04101 1.98557 6.14515 1.98557 7.10705C1.98557 8.099 1.89539 10.2031 2.25611 11.0749C2.49658 11.676 2.94747 12.1269 3.54865 12.3674C4.42037 12.7281 6.52452 12.6379 7.51647 12.6379C8.47837 12.6379 10.5825 12.7281 11.4843 12.3674C12.0554 12.1269 12.5364 11.676 12.7468 11.0749Z" fill="white"/>
</svg>
