<svg width="15" height="15" viewBox="0 0 15 15" fill="none" xmlns="http://www.w3.org/2000/svg">
<path d="M3.30366 14.8784H0.254018V5.07364H3.30366V14.8784ZM1.76245 3.76197C0.81148 3.76197 0.0244751 2.94217 0.0244751 1.95841C0.0244751 1.00745 0.81148 0.220445 1.76245 0.220445C2.7462 0.220445 3.53321 1.00745 3.53321 1.95841C3.53321 2.94217 2.7462 3.76197 1.76245 3.76197ZM14.6824 14.8784H11.6656V10.1236C11.6656 8.97588 11.6328 7.53304 10.0588 7.53304C8.48478 7.53304 8.25524 8.74634 8.25524 10.0252V14.8784H5.20559V5.07364H8.12407V6.41811H8.15686C8.58316 5.6639 9.56691 4.8441 11.0425 4.8441C14.125 4.8441 14.7152 6.8772 14.7152 9.50055V14.8784H14.6824Z" fill="white"/>
</svg>
