<svg
    width={24}
    height={18}
    viewBox="0 0 24 18"
    fill="none"
    xmlns="http://www.w3.org/2000/svg"
    {...props}
  >
    <path
      d="M1.33333 17.569H22.6667C23.4 17.569 24 16.9101 24 16.1049C24 15.2996 23.4 14.6408 22.6667 14.6408H1.33333C0.6 14.6408 0 15.2996 0 16.1049C0 16.9101 0.6 17.569 1.33333 17.569ZM1.33333 10.2486H22.6667C23.4 10.2486 24 9.58973 24 8.78448C24 7.97924 23.4 7.3204 22.6667 7.3204H1.33333C0.6 7.3204 0 7.97924 0 8.78448C0 9.58973 0.6 10.2486 1.33333 10.2486ZM0 1.46408C0 2.26932 0.6 2.92816 1.33333 2.92816H22.6667C23.4 2.92816 24 2.26932 24 1.46408C24 0.658836 23.4 0 22.6667 0H1.33333C0.6 0 0 0.658836 0 1.46408Z"
      fill="black"
    />
  </svg>