<svg width="96" height="96" viewBox="0 0 96 96" fill="none" xmlns="http://www.w3.org/2000/svg">
<g filter="url(#filter0_d_61_1646)">
<circle cx="48" cy="44" r="40" fill="#E7FFF6"/>
</g>
<path d="M42.9244 55.9325C42.5729 55.5809 42.3754 55.104 42.3754 54.6068C42.3754 54.1097 42.5729 53.6328 42.9244 53.2812L52.2056 44L42.9244 34.7187C42.5828 34.3651 42.3938 33.8915 42.3981 33.3998C42.4024 32.9082 42.5996 32.438 42.9472 32.0903C43.2949 31.7427 43.7651 31.5455 44.2568 31.5412C44.7484 31.5369 45.222 31.7259 45.5756 32.0675L56.1825 42.6743C56.534 43.026 56.7315 43.5028 56.7315 44C56.7315 44.4972 56.534 44.974 56.1825 45.3256L45.5756 55.9325C45.224 56.284 44.7472 56.4814 44.25 56.4814C43.7528 56.4814 43.276 56.284 42.9244 55.9325Z" fill="#5E5E5E"/>
<defs>
<filter id="filter0_d_61_1646" x="0" y="0" width="96" height="96" filterUnits="userSpaceOnUse" color-interpolation-filters="sRGB">
<feFlood flood-opacity="0" result="BackgroundImageFix"/>
<feColorMatrix in="SourceAlpha" type="matrix" values="0 0 0 0 0 0 0 0 0 0 0 0 0 0 0 0 0 0 127 0" result="hardAlpha"/>
<feOffset dy="4"/>
<feGaussianBlur stdDeviation="4"/>
<feComposite in2="hardAlpha" operator="out"/>
<feColorMatrix type="matrix" values="0 0 0 0 0 0 0 0 0 0 0 0 0 0 0 0 0 0 0.25 0"/>
<feBlend mode="normal" in2="BackgroundImageFix" result="effect1_dropShadow_61_1646"/>
<feBlend mode="normal" in="SourceGraphic" in2="effect1_dropShadow_61_1646" result="shape"/>
</filter>
</defs>
</svg>
