<svg width="96" height="96" viewBox="0 0 96 96" fill="none" xmlns="http://www.w3.org/2000/svg">
<g filter="url(#filter0_d_61_1641)">
<circle cx="48" cy="44" r="40" fill="#E7FFF6"/>
</g>
<path d="M53.0757 32.0675C53.4272 32.4191 53.6246 32.896 53.6246 33.3932C53.6246 33.8903 53.4272 34.3672 53.0757 34.7188L43.7944 44L53.0757 53.2813C53.4172 53.6349 53.6062 54.1085 53.6019 54.6002C53.5976 55.0918 53.4005 55.5621 53.0528 55.9097C52.7052 56.2573 52.2349 56.4545 51.7433 56.4588C51.2517 56.4631 50.778 56.2741 50.4244 55.9325L39.8175 45.3257C39.466 44.974 39.2686 44.4972 39.2686 44C39.2686 43.5028 39.466 43.026 39.8175 42.6744L50.4244 32.0675C50.776 31.716 51.2528 31.5186 51.75 31.5186C52.2472 31.5186 52.724 31.716 53.0757 32.0675Z" fill="#5E5E5E"/>
<defs>
<filter id="filter0_d_61_1641" x="0" y="0" width="96" height="96" filterUnits="userSpaceOnUse" color-interpolation-filters="sRGB">
<feFlood flood-opacity="0" result="BackgroundImageFix"/>
<feColorMatrix in="SourceAlpha" type="matrix" values="0 0 0 0 0 0 0 0 0 0 0 0 0 0 0 0 0 0 127 0" result="hardAlpha"/>
<feOffset dy="4"/>
<feGaussianBlur stdDeviation="4"/>
<feComposite in2="hardAlpha" operator="out"/>
<feColorMatrix type="matrix" values="0 0 0 0 0 0 0 0 0 0 0 0 0 0 0 0 0 0 0.25 0"/>
<feBlend mode="normal" in2="BackgroundImageFix" result="effect1_dropShadow_61_1641"/>
<feBlend mode="normal" in="SourceGraphic" in2="effect1_dropShadow_61_1641" result="shape"/>
</filter>
</defs>
</svg>
