<svg width="44" height="44" viewBox="0 0 44 44" fill="none" xmlns="http://www.w3.org/2000/svg">
<path d="M11.2502 36.7813C10.8938 36.7813 10.5521 36.6397 10.3001 36.3877C10.0481 36.1357 9.90648 35.7939 9.90648 35.4376V28.2653C9.16929 28.6169 8.35226 28.7676 7.53812 28.702C6.84877 28.6514 6.17905 28.4494 5.57664 28.1105C4.97422 27.7715 4.45392 27.304 4.05276 26.7411C3.6516 26.1782 3.37944 25.5338 3.25566 24.8538C3.13187 24.1737 3.15951 23.4748 3.33659 22.8066C3.51367 22.1385 3.83585 21.5176 4.2802 20.9881C4.72455 20.4586 5.28014 20.0336 5.90743 19.7433C6.53472 19.453 7.21829 19.3045 7.90949 19.3085C8.60069 19.3124 9.28253 19.4686 9.90648 19.7661V12.5938C9.90648 12.2374 10.0481 11.8956 10.3001 11.6436C10.5521 11.3916 10.8938 11.25 11.2502 11.25H19.0944C18.7427 10.5129 18.5921 9.69583 18.6577 8.88169C18.7083 8.19234 18.9103 7.52262 19.2492 6.9202C19.5881 6.31779 20.0557 5.79749 20.6186 5.39633C21.1815 4.99516 21.8259 4.72301 22.5059 4.59922C23.1859 4.47544 23.8849 4.50307 24.553 4.68016C25.2212 4.85724 25.8421 5.17942 26.3715 5.62377C26.901 6.06811 27.326 6.6237 27.6163 7.25099C27.9066 7.87829 28.0551 8.56186 28.0512 9.25306C28.0473 9.94426 27.891 10.6261 27.5936 11.25H35.4377C35.7941 11.25 36.1359 11.3916 36.3879 11.6436C36.6399 11.8956 36.7815 12.2374 36.7815 12.5938V19.7661C36.0443 19.4144 35.2273 19.2637 34.4131 19.3293C33.7238 19.38 33.0541 19.582 32.4516 19.9209C31.8492 20.2598 31.3289 20.7274 30.9278 21.2903C30.5266 21.8532 30.2544 22.4975 30.1307 23.1776C30.0069 23.8576 30.0345 24.5566 30.2116 25.2247C30.3887 25.8929 30.7109 26.5138 31.1552 27.0432C31.5995 27.5727 32.1551 27.9977 32.7824 28.288C33.4097 28.5783 34.0933 28.7268 34.7845 28.7229C35.4757 28.7189 36.1575 28.5627 36.7815 28.2653V35.4376C36.7815 35.7939 36.6399 36.1357 36.3879 36.3877C36.1359 36.6397 35.7941 36.7813 35.4377 36.7813H11.2502Z" stroke="white" stroke-width="2" stroke-linecap="round" stroke-linejoin="round"/>
</svg>
