<svg width="18" height="15" viewBox="0 0 18 15" fill="none" xmlns="http://www.w3.org/2000/svg">
<path d="M15.4971 4.17202C15.4971 4.33598 15.4971 4.46715 15.4971 4.63111C15.4971 9.18918 12.0539 14.4031 5.72511 14.4031C3.7576 14.4031 1.95404 13.8456 0.445618 12.8619C0.707953 12.8947 0.970288 12.9275 1.26541 12.9275C2.87222 12.9275 4.34785 12.37 5.52836 11.4518C4.01993 11.419 2.74105 10.4353 2.31476 9.05801C2.5443 9.0908 2.74105 9.12359 2.97059 9.12359C3.26572 9.12359 3.59364 9.05801 3.85597 8.99243C2.28196 8.66451 1.10146 7.28725 1.10146 5.61486V5.58207C1.56054 5.84441 2.118 5.97557 2.67547 6.00837C1.7245 5.38532 1.13425 4.33598 1.13425 3.15547C1.13425 2.49963 1.29821 1.90938 1.59333 1.4175C3.29851 3.48339 5.85628 4.86065 8.70917 5.02461C8.64359 4.76227 8.6108 4.49994 8.6108 4.2376C8.6108 2.33567 10.152 0.794455 12.0539 0.794455C13.0377 0.794455 13.9231 1.18796 14.5789 1.87659C15.3331 1.71263 16.0873 1.4175 16.7432 1.024C16.4809 1.8438 15.9562 2.49963 15.2348 2.92593C15.9234 2.86034 16.612 2.66359 17.2023 2.40126C16.7432 3.08989 16.1529 3.68014 15.4971 4.17202Z" fill="white"/>
</svg>
