<svg width="19" height="13" viewBox="0 0 19 13" fill="none" xmlns="http://www.w3.org/2000/svg">
<path d="M17.9066 2.28664C18.3001 3.6639 18.3001 6.61517 18.3001 6.61517C18.3001 6.61517 18.3001 9.53365 17.9066 10.9437C17.7098 11.7307 17.0868 12.321 16.3325 12.5177C14.9225 12.8784 9.34787 12.8784 9.34787 12.8784C9.34787 12.8784 3.74046 12.8784 2.33041 12.5177C1.57619 12.321 0.953149 11.7307 0.756398 10.9437C0.362895 9.53365 0.362895 6.61517 0.362895 6.61517C0.362895 6.61517 0.362895 3.6639 0.756398 2.28664C0.953149 1.49963 1.57619 0.876588 2.33041 0.679836C3.74046 0.286334 9.34787 0.286334 9.34787 0.286334C9.34787 0.286334 14.9225 0.286334 16.3325 0.679836C17.0868 0.876588 17.7098 1.49963 17.9066 2.28664ZM7.51153 9.27131L12.168 6.61517L7.51153 3.95902V9.27131Z" fill="white"/>
</svg>
